<?xml version="1.0" encoding="utf-8"?>
<!-- Generator: Adobe Illustrator 25.0.0, SVG Export Plug-In . SVG Version: 6.00 Build 0)  -->
<svg version="1.1" id="Layer_1" xmlns="http://www.w3.org/2000/svg" xmlns:xlink="http://www.w3.org/1999/xlink" x="0px" y="0px"
	 viewBox="0 0 600 600" style="enable-background:new 0 0 600 600;" xml:space="preserve">
<style type="text/css">
	.st0{fill:#871F41;}
	.st1{fill:#E77724;}
</style>
<g>
	<g>
		<path class="st0" d="M215.18,334.39h-15.25v-32.4h15.25v3.51h-11.16v10.39h8.55v3.51h-8.55v11.47h11.16V334.39z"/>
		<path class="st0" d="M218.1,334.39v-32.4h3.29l10.84,21.87l1.04,2.66l-0.09-2.57v-21.96h3.69v32.4h-3.28l-10.84-21.91l-1.03-2.7
			l0.09,2.43v22.18H218.1z"/>
		<path class="st0" d="M256.76,334.39l-0.9-1.93c-1.4,1.58-3.6,2.38-6.34,2.38c-5.22,0-8.5-2.56-8.5-7.02v-19.26
			c0-4.45,3.51-7.02,9.04-7.02c5.4,0,8.86,2.57,8.86,7.02v5.13h-3.87v-4.36c0-2.83-1.98-4.28-5-4.28c-3.37,0-4.95,1.44-4.95,4.28
			v17.55c0,3.01,1.58,4.46,4.95,4.46c2.93,0,4.91-1.35,5-4.23v-5.36h-5v-3.51h8.86v16.15H256.76z"/>
		<path class="st0" d="M262.79,334.39v-32.4h4.09v32.4H262.79z"/>
		<path class="st0" d="M271.34,334.39v-32.4h3.29l10.84,21.87l1.04,2.66l-0.09-2.57v-21.96h3.69v32.4h-3.28l-10.84-21.91l-1.03-2.7
			l0.09,2.43v22.18H271.34z"/>
		<path class="st0" d="M309.81,334.39h-15.25v-32.4h15.25v3.51h-11.16v10.39h8.55v3.51h-8.55v11.47h11.16V334.39z"/>
		<path class="st0" d="M327.99,334.39h-15.25v-32.4h15.25v3.51h-11.16v10.39h8.55v3.51h-8.55v11.47h11.16V334.39z"/>
		<path class="st0" d="M330.92,334.39v-32.4h6.93c6.66,0,9.22,3.29,9.22,8.82v2.92c0,3.92-1.49,6.62-5.13,7.7l6.93,12.96h-4.5
			l-6.39-12.46h-2.97v12.46H330.92z M335.01,305.5v12.92h2.88c3.46,0,5.08-1.53,5.08-5.17v-2.21c0-3.83-1.62-5.54-4.95-5.54H335.01z
			"/>
		<path class="st0" d="M350.72,334.39v-32.4h4.09v32.4H350.72z"/>
		<path class="st0" d="M359.26,334.39v-32.4h3.29l10.84,21.87l1.04,2.66l-0.09-2.57v-21.96h3.69v32.4h-3.28l-10.84-21.91l-1.04-2.7
			l0.09,2.43v22.18H359.26z"/>
		<path class="st0" d="M397.92,334.39l-0.9-1.93c-1.39,1.58-3.6,2.38-6.34,2.38c-5.22,0-8.5-2.56-8.5-7.02v-19.26
			c0-4.45,3.51-7.02,9.04-7.02c5.4,0,8.86,2.57,8.86,7.02v5.13h-3.87v-4.36c0-2.83-1.98-4.28-5-4.28c-3.38,0-4.95,1.44-4.95,4.28
			v17.55c0,3.01,1.58,4.46,4.95,4.46c2.92,0,4.91-1.35,5-4.23v-5.36h-5v-3.51h8.86v16.15H397.92z"/>
	</g>
	<path class="st0" d="M305.97,247.09c-5.96,0-11.43,3.26-14.27,8.5l-14.44,26.7l-16.62-31.07h7.06l9.4,17.47l9.79-17.47h4.62
		l0.77-0.22c1.33-1.48,2.88-2.72,4.6-3.7l0.5-0.22h-12.9l-7.3,13.02l-7-13.02h-16.43l23.5,43.91l18.08-33.41
		c0.13-0.24,0.27-0.48,0.42-0.72c1.61-2.55,4.09-4.39,7-5.21c0.8-0.22,1.61-0.36,2.42-0.41c0.28-0.02,0.55-0.03,0.83-0.03h33.35
		l-3.17,5.92h-15.6l-15.49,29.08h-7.16l15.6-28.97H298.1l-0.16,0.28c-0.57,0.91-1.28,2.19-1.7,2.96l-0.51,0.89h10.89l-15.6,28.97
		h16.57l15.48-29.08h15.59l7.6-14.17H305.97z"/>
	<g>
		<g>
			<polygon class="st1" points="321.64,341.91 321.64,339.58 331.83,339.58 331.83,341.91 327.95,341.91 327.95,352.78 
				325.53,352.78 325.53,341.91 			"/>
			<polygon class="st1" points="342.33,352.78 333.85,352.78 333.85,339.59 342.33,339.59 342.33,341.9 336.27,341.9 336.27,344.98 
				341.18,344.98 341.18,347.29 336.27,347.29 336.27,350.47 342.33,350.47 			"/>
			<path class="st1" d="M346.33,346.18c0,0.6,0.12,1.16,0.35,1.68c0.23,0.53,0.54,0.98,0.94,1.37c0.4,0.39,0.86,0.7,1.38,0.92
				c0.52,0.23,1.08,0.34,1.68,0.34c0.46,0,0.89-0.07,1.3-0.21c0.41-0.14,0.79-0.33,1.14-0.57c0.14-0.09,0.28-0.16,0.44-0.2
				c0.16-0.05,0.32-0.07,0.49-0.07c0.28,0,0.51,0.04,0.7,0.13c0.19,0.09,0.37,0.21,0.54,0.37l0.56,0.56c-0.34,0.37-0.72,0.7-1.11,1
				c-0.4,0.29-0.82,0.55-1.26,0.76c-0.44,0.21-0.89,0.37-1.36,0.48c-0.47,0.11-0.95,0.17-1.44,0.17c-0.93,0-1.81-0.18-2.63-0.53
				c-0.82-0.35-1.54-0.83-2.15-1.44c-0.61-0.61-1.1-1.32-1.45-2.14c-0.35-0.82-0.53-1.69-0.53-2.62c0-0.62,0.08-1.22,0.24-1.79
				c0.16-0.57,0.39-1.11,0.68-1.61c0.29-0.5,0.65-0.95,1.06-1.36c0.41-0.41,0.87-0.76,1.37-1.05c0.5-0.29,1.04-0.52,1.62-0.68
				c0.58-0.16,1.18-0.24,1.8-0.24c0.49,0,0.97,0.06,1.44,0.16c0.47,0.11,0.92,0.27,1.36,0.48c0.44,0.21,0.86,0.46,1.26,0.76
				c0.4,0.29,0.77,0.63,1.11,1l-0.56,0.56c-0.16,0.16-0.34,0.29-0.55,0.38c-0.21,0.1-0.44,0.14-0.69,0.14
				c-0.34,0-0.65-0.1-0.93-0.29c-0.35-0.24-0.74-0.43-1.14-0.56c-0.41-0.13-0.84-0.2-1.29-0.2c-0.6,0-1.16,0.11-1.68,0.34
				c-0.53,0.23-0.99,0.54-1.38,0.92c-0.4,0.39-0.71,0.85-0.94,1.37C346.45,345.03,346.33,345.59,346.33,346.18"/>
			<polygon class="st1" points="369.83,352.78 367.41,352.78 367.41,347.31 360.92,347.31 360.92,352.78 358.51,352.78 
				358.51,339.59 360.92,339.59 360.92,345 367.41,345 367.41,339.59 369.83,339.59 			"/>
			<path class="st1" d="M233.57,348.78c0,0,1.19-2.73,1.78-4.09c0.59-1.36,1.19-2.72,1.79-4.09c0.13-0.31,0.35-0.56,0.63-0.74
				c0.29-0.18,0.6-0.27,0.94-0.27h1.5l-5.76,13.2h-2.19l-5.76-13.2h1.49c0.17,0,0.33,0.03,0.49,0.07c0.16,0.05,0.31,0.12,0.45,0.21
				c0.14,0.09,0.27,0.2,0.38,0.32c0.11,0.12,0.2,0.26,0.26,0.4l3.56,8.17l0.21,0.48L233.57,348.78z"/>
			<rect x="242.25" y="339.59" class="st1" width="2.42" height="13.2"/>
			<path class="st1" d="M271.79,345.72v5.53c-0.33,0.33-0.69,0.6-1.08,0.82c-0.39,0.21-0.79,0.38-1.22,0.51
				c-0.42,0.13-0.86,0.21-1.32,0.26c-0.46,0.05-0.92,0.07-1.39,0.07c-0.93,0-1.81-0.18-2.62-0.53c-0.82-0.35-1.53-0.83-2.15-1.44
				c-0.61-0.61-1.1-1.32-1.45-2.14c-0.35-0.82-0.53-1.69-0.53-2.63c0-0.62,0.08-1.21,0.24-1.79c0.16-0.57,0.39-1.11,0.68-1.61
				c0.29-0.5,0.65-0.95,1.06-1.36c0.41-0.41,0.87-0.76,1.37-1.05c0.5-0.29,1.04-0.52,1.61-0.68c0.57-0.16,1.17-0.24,1.79-0.24
				c0.49,0,0.97,0.06,1.45,0.17c0.47,0.11,0.93,0.27,1.36,0.48c0.44,0.21,0.85,0.46,1.25,0.76c0.4,0.29,0.77,0.63,1.11,1l-0.55,0.56
				c-0.17,0.18-0.36,0.31-0.56,0.4c-0.2,0.09-0.43,0.13-0.69,0.13c-0.34,0-0.66-0.1-0.94-0.29c-0.35-0.24-0.73-0.43-1.14-0.56
				c-0.41-0.13-0.84-0.2-1.3-0.2c-0.59,0-1.15,0.11-1.67,0.34c-0.53,0.23-0.99,0.54-1.38,0.92c-0.4,0.39-0.71,0.85-0.94,1.37
				c-0.23,0.52-0.35,1.08-0.35,1.67c0,0.61,0.12,1.17,0.36,1.7c0.24,0.53,0.56,0.98,0.97,1.37c0.41,0.39,0.88,0.69,1.41,0.92
				c0.54,0.22,1.1,0.33,1.69,0.33c0.29-0.01,0.58-0.03,0.88-0.07c0.25-0.04,0.52-0.1,0.81-0.18c0.29-0.08,0.55-0.19,0.79-0.34v-1.86
				c-0.26-0.01-0.51-0.01-0.76-0.01c-0.25,0-0.47-0.05-0.66-0.14c-0.19-0.09-0.35-0.25-0.46-0.47c-0.12-0.22-0.18-0.54-0.18-0.97
				v-0.74H271.79z"/>
			<rect x="275.69" y="339.59" class="st1" width="2.42" height="13.2"/>
			<path class="st1" d="M284.51,342.91v9.87h-2.41v-13.2h2.13c0.29,0,0.56,0.04,0.78,0.13c0.22,0.09,0.4,0.22,0.53,0.4
				c0.92,1.31,5.87,8.3,5.87,8.3v-8.82h2.41v13.2h-2.24L284.51,342.91z"/>
			<rect x="297.79" y="339.59" class="st1" width="2.42" height="13.2"/>
			<path class="st1" d="M310.19,339.59h-2.18l-5.77,13.2h1.5c0.17,0,0.33-0.03,0.49-0.07s0.31-0.12,0.46-0.21
				c0.14-0.09,0.26-0.19,0.38-0.32c0.11-0.12,0.2-0.26,0.26-0.41l0.77-1.79h0l1.39-3.21h0.01l1.59-3.69l1.93,4.48h-1.1
				c-0.82,0-1.56,0.49-1.89,1.24l-0.51,1.18h4.57l0.78,1.79c0.14,0.31,0.35,0.56,0.64,0.74c0.28,0.18,0.59,0.27,0.94,0.27h1.5
				L310.19,339.59z"/>
			<path class="st1" d="M251.07,352.78h-2.41v-13.19h4.95c0.64,0,1.21,0.12,1.73,0.36c0.52,0.24,0.96,0.56,1.33,0.95
				c0.37,0.4,0.66,0.85,0.86,1.35c0.2,0.5,0.3,1.02,0.3,1.56c0,0.39-0.05,0.76-0.15,1.13c-0.11,0.37-0.26,0.72-0.46,1.04
				c-0.2,0.32-0.45,0.62-0.75,0.9c-0.3,0.27-0.63,0.51-1.01,0.69c0.64,0.88,1.29,1.75,1.92,2.61c0.64,0.86,1.28,1.73,1.93,2.6h-1.89
				c-0.13,0-0.28-0.03-0.45-0.08c-0.17-0.06-0.35-0.14-0.54-0.26c-0.19-0.12-0.38-0.27-0.58-0.47c-0.2-0.19-0.4-0.42-0.59-0.7
				l-2.4-3.24h-1.8V352.78z M253.68,345.61c0.23,0,0.45-0.05,0.67-0.15c0.21-0.1,0.4-0.23,0.55-0.4c0.16-0.17,0.28-0.36,0.37-0.57
				c0.09-0.22,0.14-0.44,0.14-0.68c0-0.24-0.05-0.47-0.14-0.69c-0.09-0.22-0.22-0.41-0.37-0.57c-0.16-0.17-0.34-0.3-0.55-0.4
				c-0.21-0.1-0.43-0.15-0.67-0.15h-2.61v3.6H253.68z"/>
			<g>
				<path class="st1" d="M372.25,350.36c0.67,0,1.22,0.55,1.22,1.22c0,0.67-0.55,1.22-1.22,1.22c-0.67,0-1.21-0.54-1.21-1.22
					C371.04,350.91,371.58,350.36,372.25,350.36z M372.25,352.66c0.59,0,1.08-0.48,1.08-1.08c0-0.6-0.48-1.08-1.08-1.08
					c-0.6,0-1.08,0.48-1.08,1.08C371.17,352.18,371.65,352.66,372.25,352.66z M372.45,351.68l0.31,0.46c0.02,0.04,0,0.05-0.04,0.05
					h-0.16c-0.03,0-0.05-0.01-0.07-0.04l-0.29-0.45h-0.14v0.45c0,0.03-0.01,0.04-0.04,0.04h-0.17c-0.04,0-0.05-0.01-0.05-0.04V351
					c0-0.03,0.01-0.04,0.05-0.04h0.43c0.2,0,0.44,0.08,0.44,0.37C372.72,351.53,372.6,351.63,372.45,351.68z M372.27,351.49
					c0.13,0,0.19-0.05,0.19-0.16c0-0.11-0.06-0.16-0.2-0.16h-0.21v0.31H372.27z"/>
			</g>
		</g>
	</g>
</g>
</svg>
